<svg width="68" height="68" viewBox="0 0 68 68" fill="none" xmlns="http://www.w3.org/2000/svg">
<path fill-rule="evenodd" clip-rule="evenodd" d="M53.8917 45.0621C49.4918 52.8255 39.9398 56.2844 38.4808 50.6986C35.625 58.009 39.2752 63.6569 46.3856 63.997C36.9118 64.5514 32.7923 57.1025 36.1481 49.1489C42.4995 34.094 77.9832 32.9129 61.9784 12.9553C70.5588 26.2611 47.3092 31.7671 37.0445 32.7232C22.4001 34.086 15.4919 43.9637 15.7631 52.8842C16.12 64.6072 30.4416 69.5401 41.7098 67.3198C51.1778 65.455 59.4864 59.7479 64.4206 51.592C73.0832 37.2726 64.6263 26.1244 53.8917 45.0621Z" fill="white"/>
<path fill-rule="evenodd" clip-rule="evenodd" d="M2.24475 22.7611C6.34922 16.7081 13.3727 13.6332 21.7787 12.586C32.0011 2.07593 46.6923 6.28293 47.8367 11.4095C51.6897 9.43361 51.1723 5.69894 45.1963 3.55784C59.1008 7.57055 50.437 16.6557 36.3344 15.4723C3.53102 12.7193 -12.1383 36.8719 11.025 58.6037C3.68977 42.4868 20.3348 28.548 38.805 28.0079C49.7887 27.6871 69.7079 20.3642 59.2387 9.92701C41.618 -7.63764 10.6779 -0.99271 2.24475 22.7611Z" fill="white"/>
</svg>
