<?xml version="1.0" encoding="utf-8"?>
<!-- Generator: Adobe Illustrator 16.0.3, SVG Export Plug-In . SVG Version: 6.00 Build 0)  -->
<!DOCTYPE svg PUBLIC "-//W3C//DTD SVG 1.1//EN" "http://www.w3.org/Graphics/SVG/1.1/DTD/svg11.dtd">
<svg version="1.1" xmlns="http://www.w3.org/2000/svg" xmlns:xlink="http://www.w3.org/1999/xlink" x="0px" y="0px"
	 width="454.371px" height="85.186px" viewBox="0 0 454.371 85.186" enable-background="new 0 0 454.371 85.186"
	 xml:space="preserve">
<g id="Capa_2">
	<g>
		<path fill="#6852ED" d="M112.542,62.732c-0.845,1.811-2.021,3.331-3.531,4.56c-1.511,1.23-3.313,2.169-5.407,2.816
			c-2.094,0.647-4.416,0.972-6.964,0.972c-3.577,0-7.086-0.615-10.528-1.844c-3.443-1.229-6.572-3.119-9.388-5.667l6.102-7.31
			c2.146,1.744,4.348,3.13,6.605,4.158c2.257,1.029,4.728,1.542,7.41,1.542c2.146,0,3.811-0.391,4.996-1.173
			c1.184-0.782,1.777-1.866,1.777-3.252v-0.134c0-0.67-0.124-1.263-0.37-1.777c-0.247-0.514-0.718-0.995-1.412-1.442
			c-0.695-0.446-1.659-0.894-2.891-1.341c-1.233-0.446-2.835-0.916-4.808-1.408c-2.376-0.581-4.527-1.229-6.456-1.945
			c-1.928-0.715-3.563-1.598-4.908-2.649c-1.346-1.05-2.387-2.357-3.127-3.923c-0.74-1.564-1.109-3.509-1.109-5.834v-0.134
			c0-2.146,0.399-4.08,1.199-5.801c0.799-1.721,1.92-3.208,3.364-4.459c1.444-1.251,3.167-2.213,5.172-2.884
			c2.003-0.67,4.213-1.006,6.627-1.006c3.442,0,6.605,0.514,9.489,1.542c2.884,1.029,5.533,2.504,7.947,4.426l-5.365,7.779
			c-2.102-1.43-4.158-2.559-6.169-3.386c-2.012-0.827-4.024-1.241-6.036-1.241s-3.521,0.392-4.526,1.173
			c-1.006,0.783-1.509,1.755-1.509,2.917v0.134c0,0.761,0.146,1.42,0.437,1.979c0.292,0.56,0.817,1.063,1.58,1.509
			c0.762,0.447,1.805,0.872,3.127,1.274s2.991,0.872,5.009,1.408c2.375,0.626,4.493,1.331,6.354,2.112
			c1.86,0.783,3.429,1.722,4.707,2.816c1.277,1.096,2.241,2.381,2.891,3.856c0.649,1.476,0.975,3.242,0.975,5.298v0.134
			C113.808,58.854,113.386,60.921,112.542,62.732z"/>
		<path fill="#6852ED" d="M144.187,70.411v-5.139c-0.582,0.766-1.219,1.498-1.911,2.195c-0.694,0.698-1.465,1.317-2.314,1.858
			c-0.85,0.541-1.789,0.968-2.816,1.284c-1.029,0.314-2.191,0.472-3.487,0.472c-3.89,0-6.897-1.184-9.02-3.554
			c-2.124-2.369-3.185-5.633-3.185-9.791v-23.27h10.193v20.002c0,2.409,0.537,4.227,1.61,5.453c1.073,1.226,2.592,1.839,4.56,1.839
			c1.967,0,3.521-0.613,4.661-1.839c1.14-1.226,1.71-3.044,1.71-5.453V34.466h10.193v35.944H144.187z"/>
		<path fill="#6852ED" d="M199.51,28.297h-28.635v16.027h25.617v4.828h-25.617v16.43h28.97v4.828h-34.268V23.468h33.932V28.297z"/>
		<path fill="#6852ED" d="M239.244,39.228c0.782-0.849,1.665-1.586,2.649-2.213c0.982-0.625,2.089-1.117,3.319-1.476
			c1.229-0.357,2.604-0.536,4.124-0.536c4.024,0,7.176,1.24,9.456,3.722c2.28,2.481,3.42,5.891,3.42,10.227v21.459h-5.164V50.158
			c0-3.353-0.794-5.935-2.38-7.745c-1.587-1.811-3.789-2.716-6.605-2.716c-1.297,0-2.526,0.235-3.688,0.704
			c-1.163,0.47-2.179,1.163-3.051,2.079c-0.872,0.917-1.565,2.045-2.079,3.387c-0.515,1.341-0.771,2.861-0.771,4.56v19.984h-5.097
			V50.024c0-3.263-0.794-5.801-2.38-7.611c-1.587-1.811-3.767-2.716-6.539-2.716c-1.386,0-2.66,0.269-3.822,0.805
			c-1.163,0.536-2.18,1.297-3.051,2.28c-0.872,0.984-1.554,2.135-2.045,3.454c-0.492,1.319-0.738,2.783-0.738,4.393v19.783h-5.164
			V35.74h5.164v5.834c0.581-0.849,1.218-1.677,1.912-2.481c0.692-0.805,1.485-1.509,2.38-2.112c0.894-0.604,1.9-1.083,3.018-1.442
			c1.117-0.357,2.415-0.536,3.89-0.536c2.816,0,5.141,0.66,6.974,1.978c1.833,1.319,3.219,2.962,4.158,4.929
			C237.757,40.971,238.461,40.077,239.244,39.228z"/>
		<path fill="#6852ED" d="M307.008,60.687c-0.938,2.236-2.18,4.124-3.722,5.667c-1.543,1.542-3.31,2.728-5.298,3.554
			c-1.99,0.827-4.035,1.241-6.136,1.241c-1.61,0-3.085-0.201-4.426-0.604s-2.548-0.939-3.621-1.609
			c-1.073-0.671-2.045-1.453-2.917-2.347c-0.872-0.894-1.643-1.833-2.314-2.817V81.14h-5.164v-45.4h5.164v6.975
			c0.715-1.028,1.509-2.012,2.381-2.951s1.844-1.754,2.917-2.448c1.073-0.693,2.269-1.251,3.588-1.677
			c1.318-0.424,2.783-0.637,4.393-0.637c2.056,0,4.079,0.402,6.069,1.207c1.989,0.805,3.766,1.978,5.331,3.521
			s2.817,3.432,3.756,5.667c0.939,2.236,1.408,4.785,1.408,7.645C308.416,55.904,307.947,58.452,307.008,60.687z M302.146,47.571
			c-0.648-1.646-1.532-3.059-2.649-4.237c-1.118-1.179-2.414-2.08-3.889-2.702c-1.476-0.623-3.041-0.935-4.694-0.935
			c-1.609,0-3.164,0.323-4.661,0.968c-1.499,0.646-2.84,1.546-4.024,2.703c-1.185,1.157-2.124,2.558-2.816,4.204
			c-0.693,1.646-1.04,3.469-1.04,5.471c0,2.002,0.346,3.837,1.04,5.505c0.693,1.668,1.631,3.081,2.816,4.237
			c1.184,1.157,2.525,2.057,4.024,2.702c1.497,0.646,3.051,0.967,4.661,0.967c1.653,0,3.229-0.3,4.728-0.9
			c1.498-0.601,2.793-1.468,3.89-2.603c1.095-1.134,1.967-2.536,2.615-4.204c0.647-1.668,0.973-3.547,0.973-5.639
			C303.118,51.064,302.793,49.217,302.146,47.571z"/>
		<path fill="#6852ED" d="M323.102,70.411h-5.163V35.74h5.163v9.053c0.626-1.43,1.408-2.75,2.348-3.957
			c0.938-1.207,2.012-2.247,3.219-3.118s2.525-1.531,3.956-1.979c1.431-0.446,2.973-0.647,4.628-0.604v5.566h-0.403
			c-1.877,0-3.654,0.335-5.331,1.006c-1.676,0.67-3.142,1.676-4.393,3.018c-1.252,1.341-2.235,3.007-2.95,4.996
			c-0.716,1.99-1.073,4.281-1.073,6.874V70.411z"/>
		<path fill="#6852ED" d="M348.115,59.983c0.715,1.453,1.632,2.682,2.75,3.688c1.117,1.006,2.369,1.767,3.755,2.28
			c1.386,0.515,2.839,0.771,4.359,0.771c2.414,0,4.481-0.446,6.203-1.341c1.721-0.894,3.297-2.079,4.728-3.554l3.219,2.883
			c-1.743,1.968-3.733,3.544-5.968,4.728c-2.236,1.184-5.008,1.777-8.315,1.777c-2.37,0-4.605-0.436-6.706-1.308
			c-2.103-0.872-3.94-2.101-5.515-3.688c-1.576-1.586-2.827-3.498-3.756-5.733c-0.929-2.235-1.393-4.694-1.393-7.377
			c0-2.503,0.413-4.862,1.241-7.075c0.826-2.213,1.978-4.135,3.453-5.767c1.476-1.631,3.229-2.917,5.265-3.856
			c2.033-0.939,4.258-1.408,6.672-1.408c2.549,0,4.829,0.481,6.841,1.441c2.012,0.962,3.71,2.27,5.097,3.923
			c1.385,1.654,2.436,3.599,3.151,5.834c0.715,2.236,1.073,4.627,1.073,7.176c0,0.224,0,0.469,0,0.737
			c0,0.269-0.023,0.56-0.067,0.872h-27.428C346.952,56.864,347.4,58.53,348.115,59.983z M368.972,51.165
			c-0.135-1.564-0.456-3.062-0.968-4.493c-0.511-1.43-1.222-2.683-2.132-3.755c-0.912-1.073-2.022-1.934-3.333-2.582
			c-1.312-0.647-2.833-0.972-4.566-0.972c-1.511,0-2.911,0.302-4.2,0.905c-1.288,0.604-2.421,1.431-3.398,2.481
			c-0.978,1.051-1.777,2.292-2.399,3.722c-0.623,1.431-1.023,2.996-1.2,4.694H368.972z"/>
		<path fill="#6852ED" d="M406.156,65.079c-0.648,1.274-1.521,2.359-2.615,3.252c-1.097,0.895-2.393,1.576-3.89,2.045
			c-1.499,0.47-3.118,0.704-4.862,0.704c-2.504,0-5.029-0.459-7.578-1.375c-2.548-0.916-4.806-2.156-6.772-3.722l2.615-3.688
			c1.878,1.431,3.833,2.526,5.868,3.286c2.033,0.76,4.079,1.14,6.136,1.14c2.101,0,3.822-0.491,5.163-1.475
			c1.342-0.983,2.012-2.324,2.012-4.024v-0.134c0-0.849-0.234-1.586-0.704-2.213c-0.469-0.626-1.106-1.174-1.911-1.643
			c-0.805-0.47-1.732-0.882-2.782-1.241c-1.052-0.357-2.136-0.692-3.253-1.006c-1.341-0.402-2.694-0.838-4.057-1.308
			c-1.364-0.47-2.594-1.062-3.688-1.777c-1.097-0.714-1.99-1.609-2.683-2.682c-0.693-1.073-1.039-2.415-1.039-4.024v-0.134
			c0-1.476,0.29-2.827,0.871-4.057c0.581-1.229,1.397-2.28,2.448-3.152c1.05-0.872,2.302-1.542,3.755-2.012
			c1.452-0.469,3.028-0.704,4.728-0.704c2.146,0,4.314,0.347,6.505,1.04c2.19,0.694,4.18,1.621,5.969,2.783l-2.347,3.889
			c-1.609-1.028-3.298-1.844-5.063-2.448c-1.767-0.604-3.499-0.905-5.197-0.905c-2.057,0-3.688,0.481-4.896,1.442
			c-1.207,0.962-1.811,2.158-1.811,3.588v0.134c0,0.805,0.245,1.509,0.737,2.112s1.151,1.129,1.979,1.576
			c0.827,0.448,1.777,0.85,2.851,1.207c1.072,0.358,2.189,0.716,3.353,1.073c1.342,0.402,2.671,0.85,3.99,1.341
			c1.318,0.492,2.515,1.118,3.588,1.877c1.073,0.761,1.934,1.677,2.582,2.75c0.647,1.073,0.972,2.392,0.972,3.957v0.134
			C407.128,62.341,406.804,63.805,406.156,65.079z"/>
		<path fill="#6852ED" d="M423.658,40.535c-1.677,0.47-3.319,1.084-4.929,1.844l-1.543-4.225c1.922-0.894,3.867-1.598,5.835-2.113
			c1.967-0.513,4.225-0.771,6.772-0.771c4.738,0,8.383,1.173,10.931,3.521c2.549,2.347,3.823,5.824,3.823,10.428v21.191h-4.963
			v-5.23c-1.207,1.565-2.828,2.95-4.862,4.158c-2.034,1.207-4.593,1.811-7.678,1.811c-1.609,0-3.186-0.224-4.728-0.671
			c-1.543-0.446-2.929-1.128-4.158-2.045c-1.23-0.916-2.213-2.045-2.95-3.386c-0.738-1.341-1.107-2.928-1.107-4.761
			c0-1.833,0.357-3.454,1.073-4.862c0.715-1.409,1.732-2.582,3.052-3.521c1.317-0.938,2.883-1.653,4.694-2.146
			c1.811-0.491,3.811-0.737,6.002-0.737c2.234,0,4.18,0.134,5.834,0.402c1.653,0.268,3.263,0.626,4.828,1.073v-1.207
			c0-3.129-0.905-5.487-2.716-7.075c-1.811-1.586-4.349-2.381-7.611-2.381C427.201,39.831,425.335,40.066,423.658,40.535z
			 M422.007,54.786c-1.738,1.297-2.607,3.063-2.607,5.298c0,1.118,0.234,2.102,0.702,2.951c0.468,0.85,1.103,1.576,1.905,2.179
			c0.802,0.604,1.726,1.063,2.773,1.375c1.047,0.313,2.15,0.469,3.31,0.469c1.603,0,3.106-0.235,4.511-0.704
			c1.403-0.469,2.629-1.117,3.677-1.945c1.047-0.827,1.871-1.811,2.473-2.951s0.902-2.402,0.902-3.789v-3.353
			c-1.293-0.357-2.775-0.692-4.445-1.006c-1.671-0.312-3.576-0.469-5.715-0.469C426.24,52.841,423.744,53.489,422.007,54.786z"/>
	</g>
</g>
<g id="Capa_1">
	<path fill="#6852ED" d="M56.686,50.458c-4.399,7.764-13.952,11.223-15.411,5.637c-2.855,7.31,0.795,12.957,7.905,13.298
		c-9.474,0.554-13.593-6.895-10.237-14.849c6.352-15.055,41.835-16.235,25.83-36.193c8.58,13.306-14.67,18.812-24.934,19.767
		C25.194,39.481,18.286,49.359,18.558,58.28c0.357,11.723,14.678,16.655,25.947,14.436c9.468-1.865,17.776-7.572,22.71-15.729
		C75.877,42.668,67.421,31.521,56.686,50.458z"/>
	<path fill="#6852ED" d="M5.039,28.157c4.104-6.053,11.128-9.128,19.534-10.175c10.222-10.51,24.914-6.303,26.058-1.176
		c3.853-1.976,3.335-5.711-2.641-7.852c13.904,4.013,5.241,13.098-8.862,11.914c-32.803-2.753-48.472,21.4-25.309,43.131
		c-7.335-16.117,9.31-30.056,27.78-30.596c10.984-0.32,30.903-7.644,20.434-18.081C44.413-2.242,13.472,4.403,5.039,28.157z"/>
	<g>
	</g>
	<g>
	</g>
	<g>
	</g>
	<g>
	</g>
	<g>
	</g>
	<g>
	</g>
	<g>
	</g>
	<g>
	</g>
	<g>
	</g>
	<g>
	</g>
	<g>
	</g>
	<g>
	</g>
	<g>
	</g>
	<g>
	</g>
	<g>
	</g>
</g>
</svg>
