<svg width="42" height="43" viewBox="0 0 42 43" fill="none" xmlns="http://www.w3.org/2000/svg">
<path d="M15.75 18.625V29.125C15.75 29.8633 15.4219 30.5195 14.9297 31.0117C14.4375 31.5039 13.7812 31.75 13.125 31.75H10.5C9.02344 31.75 7.71094 31.2578 6.72656 30.1914C5.74219 29.207 5.25 27.9766 5.25 26.5V21.25C5.25 19.7734 5.74219 18.543 6.72656 17.5586C7.71094 16.5742 9.02344 16 10.5 16H13.125C13.7812 16 14.4375 16.3281 14.9297 16.8203C15.4219 17.3125 15.75 17.9688 15.75 18.625ZM13.125 29.125V18.625H10.5C9.76172 18.625 9.10547 18.9531 8.61328 19.4453C8.12109 19.9375 7.875 20.5938 7.875 21.25V26.5C7.875 27.2383 8.12109 27.8945 8.61328 28.3867C9.10547 28.8789 9.76172 29.125 10.5 29.125H13.125ZM31.5 31.75H28.875C28.1367 31.75 27.4805 31.5039 26.9883 31.0117C26.4961 30.5195 26.25 29.8633 26.25 29.125V18.625C26.25 17.9688 26.4961 17.3125 26.9883 16.8203C27.4805 16.3281 28.1367 16 28.875 16H31.5C32.9766 16 34.207 16.5742 35.1914 17.5586C36.1758 18.543 36.75 19.7734 36.75 21.25V26.5C36.75 27.9766 36.1758 29.207 35.1914 30.1914C34.207 31.2578 32.9766 31.75 31.5 31.75ZM28.875 18.625V29.125H31.5C32.1562 29.125 32.8125 28.8789 33.3047 28.3867C33.7969 27.8945 34.125 27.2383 34.125 26.5V21.25C34.125 20.5938 33.7969 19.9375 33.3047 19.4453C32.8125 18.9531 32.1562 18.625 31.5 18.625H28.875ZM21 0.25C24.7734 0.25 28.2188 1.23438 31.5 3.12109C34.6992 5.00781 37.2422 7.55078 39.1289 10.75C41.0156 14.0312 42 17.4766 42 21.25V35.6875C42 37.4922 41.3438 39.0508 40.0312 40.3633C38.7188 41.6758 37.2422 42.25 35.4375 42.25H19.6875C18.5391 42.25 17.6367 41.9219 16.8984 41.1016C16.0781 40.3633 15.75 39.4609 15.75 38.3125C15.75 37.2461 16.0781 36.3438 16.8984 35.5234C17.6367 34.7852 18.5391 34.375 19.6875 34.375H24.9375C26.0039 34.375 26.9062 34.7852 27.7266 35.5234C28.4648 36.3438 28.875 37.2461 28.875 38.3125C28.875 38.8047 28.793 39.2148 28.6289 39.625H35.4375C36.5039 39.625 37.4062 39.2969 38.2266 38.4766C38.9648 37.7383 39.375 36.8359 39.375 35.6875V21.25C39.375 17.9688 38.5547 14.8516 36.9141 12.0625C35.2734 9.27344 32.9766 6.97656 30.1875 5.33594C27.3984 3.69531 24.2812 2.875 21 2.875C17.6367 2.875 14.5195 3.77734 11.7305 5.41797C9.02344 7.05859 6.89062 9.35547 5.25 12.1445C3.60938 14.9336 2.70703 17.9688 2.625 21.25V23.2188C2.625 23.3828 2.54297 23.5469 2.37891 23.7109C2.21484 23.875 2.13281 23.875 1.96875 23.875H0.65625C0.492188 23.875 0.328125 23.875 0.164062 23.7109C0 23.5469 0 23.3828 0 23.2188V21.25C0.0820312 17.4766 1.06641 14.0312 2.95312 10.832C4.83984 7.63281 7.30078 5.08984 10.418 3.20312C13.6992 1.23438 17.2266 0.25 21 0.25ZM24.9375 39.625C25.2656 39.625 25.5938 39.543 25.8398 39.2969C26.0859 39.0508 26.25 38.7227 26.25 38.3125C26.25 37.9844 26.0859 37.6562 25.8398 37.4102C25.5938 37.1641 25.2656 37 24.9375 37H19.6875C19.2773 37 18.9492 37.1641 18.7031 37.4102C18.457 37.6562 18.375 37.9844 18.375 38.3125C18.375 38.7227 18.457 39.0508 18.7031 39.2969C18.9492 39.543 19.2773 39.625 19.6875 39.625H24.9375Z" fill="white"/></svg>  